<?xml version="1.0" encoding="UTF-8"?><svg id="Ebene_1" xmlns="http://www.w3.org/2000/svg" xmlns:xlink="http://www.w3.org/1999/xlink" viewBox="0 0 240 160"><defs><style>.cls-1,.cls-2{fill:none;}.cls-3{fill:url(#Unbenannter_Verlauf_4);}.cls-4{fill:#e3e3e3;}.cls-5{fill:#c4c4c4;}.cls-6{clip-path:url(#clippath-11);}.cls-7{clip-path:url(#clippath-10);}.cls-8{clip-path:url(#clippath-12);}.cls-9{clip-path:url(#clippath-1);}.cls-10{clip-path:url(#clippath-3);}.cls-11{clip-path:url(#clippath-4);}.cls-12{clip-path:url(#clippath-2);}.cls-13{clip-path:url(#clippath-7);}.cls-14{clip-path:url(#clippath-6);}.cls-15{clip-path:url(#clippath-9);}.cls-16{clip-path:url(#clippath-8);}.cls-17{clip-path:url(#clippath-5);}.cls-18{fill:#fff;}.cls-2{stroke:#fff;stroke-width:.5px;}.cls-19{fill:#dadada;}.cls-20{clip-path:url(#clippath);}</style><clipPath id="clippath"><rect class="cls-1" x="48.21" y="44.78" width="143.58" height="71.87"/></clipPath><clipPath id="clippath-1"><rect class="cls-1" x="48.21" y="44.78" width="143.58" height="71.87"/></clipPath><clipPath id="clippath-2"><rect class="cls-1" x="48.21" y="44.78" width="143.58" height="71.87"/></clipPath><clipPath id="clippath-3"><rect class="cls-1" x="48.21" y="44.78" width="143.58" height="71.87"/></clipPath><clipPath id="clippath-4"><rect class="cls-1" x="48.21" y="44.78" width="143.58" height="71.87"/></clipPath><clipPath id="clippath-5"><rect class="cls-1" x="48.21" y="44.78" width="143.58" height="71.87"/></clipPath><clipPath id="clippath-6"><rect class="cls-1" x="48.21" y="44.78" width="143.58" height="71.87"/></clipPath><clipPath id="clippath-7"><rect class="cls-1" x="48.21" y="44.78" width="143.58" height="71.87"/></clipPath><clipPath id="clippath-8"><rect class="cls-1" x="48.21" y="44.78" width="143.58" height="71.87"/></clipPath><clipPath id="clippath-9"><rect class="cls-1" x="48.21" y="44.78" width="143.58" height="71.87"/></clipPath><clipPath id="clippath-10"><path class="cls-5" d="M168.63,50.04c-.43,0-.87.04-1.31.12-4.11.72-6.86,4.65-6.14,8.77.73,4.12,4.65,6.87,8.77,6.14,4.12-.72,6.86-4.65,6.14-8.77-.65-3.67-3.84-6.26-7.44-6.26h-.01"/></clipPath><clipPath id="clippath-11"><path class="cls-1" d="M166.42,50.82c-2.58.86-4.3,2.69-3.83,4.08.46,1.39,2.93,1.81,5.51.94,2.58-.86,4.3-2.69,3.83-4.08-.3-.9-1.44-1.39-2.91-1.39-.8,0-1.69.14-2.6.45"/></clipPath><linearGradient id="Unbenannter_Verlauf_4" x1="-1476.78" y1="718.79" x2="-1476.05" y2="718.79" gradientTransform="translate(-5081.06 10833.45) rotate(90) scale(7.3 -7.3)" gradientUnits="userSpaceOnUse"><stop offset="0" stop-color="#fff"/><stop offset=".75" stop-color="#dadada"/><stop offset="1" stop-color="#dadada"/></linearGradient><clipPath id="clippath-12"><rect class="cls-1" x="48.21" y="44.78" width="143.58" height="71.87"/></clipPath></defs><g class="cls-20"><path class="cls-18" d="M48.84,112.61c.28.18.91.49,1.68.49.63,0,1.2-.35,1.2-1.14,0-.57-.33-.82-1.03-1.2l-.74-.41c-.78-.43-1.29-1.05-1.29-2.07,0-1.42,1.17-2.15,2.49-2.15.84,0,1.43.22,1.65.28l-.07,1.21c-.35-.14-.81-.34-1.48-.34-.73,0-1.1.38-1.1.93,0,.59.4.82.84,1.06l.85.47c.93.52,1.37,1.02,1.37,2.13,0,1.61-1.14,2.38-2.65,2.38-.79,0-1.41-.11-1.8-.35l.08-1.29Z"/><path class="cls-18" d="M58.37,113.99c-.33.12-.82.24-1.38.24-1.93,0-2.74-1.35-2.74-3s.86-3.01,2.82-3.01c.44,0,.96.14,1.22.24l-.08,1.11c-.25-.12-.6-.28-.99-.28-1.06,0-1.53.71-1.53,1.96,0,1.09.52,1.93,1.6,1.93.34,0,.8-.16,1-.28l.08,1.11Z"/><path class="cls-18" d="M59.23,105.64h1.4v3.41h.03c.25-.36.58-.84,1.45-.84,1.33,0,1.72.99,1.72,2.16v3.76h-1.4v-3.5c0-.9-.23-1.27-.8-1.27-.74,0-1,.62-1,1.37v3.4h-1.4v-8.5Z"/></g><polygon class="cls-18" points="68.69 109.59 68.66 109.59 67.64 114.14 66.1 114.14 64.53 108.3 65.98 108.3 66.92 112.84 66.94 112.84 67.93 108.3 69.52 108.3 70.49 112.84 70.51 112.84 71.45 108.3 72.81 108.3 71.26 114.14 69.73 114.14 68.69 109.59"/><g class="cls-9"><path class="cls-18" d="M76.72,110.72c0-1.03-.34-1.55-.97-1.55-.74,0-1.04.78-1.04,1.55h2.02ZM77.78,113.85c-.29.12-.91.37-1.74.37-1.88,0-2.7-1.35-2.7-2.92,0-1.74.92-3.09,2.4-3.09,1.26,0,2.33.74,2.33,3.12v.27h-3.38c0,1,.4,1.6,1.48,1.6.86,0,1.27-.26,1.53-.45l.07,1.11Z"/></g><path class="cls-18" d="M79.3,108.3h1.4v5.83h-1.4v-5.83ZM79.28,105.82h1.45v1.38h-1.45v-1.38Z"/><polygon class="cls-18" points="81.79 112.92 84.28 109.37 81.87 109.37 81.87 108.3 85.69 108.3 85.69 109.5 83.24 113.07 85.77 113.07 85.77 114.14 81.79 114.14 81.79 112.92"/><g class="cls-12"><path class="cls-18" d="M89.94,110.72c0-1.03-.34-1.55-.97-1.55-.74,0-1.04.78-1.04,1.55h2.02ZM91,113.85c-.29.12-.91.37-1.74.37-1.88,0-2.7-1.35-2.7-2.92,0-1.74.92-3.09,2.4-3.09,1.26,0,2.33.74,2.33,3.12v.27h-3.38c0,1,.4,1.6,1.48,1.6.86,0,1.27-.26,1.53-.45l.07,1.11Z"/><path class="cls-18" d="M92.43,109.26c0-.36-.01-.7-.05-.96h1.27c.01.35.05.71.05,1.06h.02c.17-.45.61-1.15,1.48-1.15.09,0,.16.02.24.03v1.31c-.13-.03-.25-.06-.4-.06-.58,0-1.21.35-1.21,1.44v3.19h-1.4v-4.87Z"/></g><polygon class="cls-18" points="100.06 107.38 98.29 107.38 98.29 106.23 103.27 106.23 103.27 107.38 101.51 107.38 101.51 114.14 100.06 114.14 100.06 107.38"/><g class="cls-10"><path class="cls-18" d="M106.39,110.72c0-1.03-.34-1.55-.97-1.55-.74,0-1.04.78-1.04,1.55h2.02ZM107.46,113.85c-.29.12-.91.37-1.74.37-1.88,0-2.7-1.35-2.7-2.92,0-1.74.92-3.09,2.4-3.09,1.26,0,2.33.74,2.33,3.12v.27h-3.38c0,1,.4,1.6,1.48,1.6.86,0,1.27-.26,1.53-.45l.07,1.11Z"/></g><path class="cls-18" d="M108.98,108.3h1.4v5.83h-1.4v-5.83ZM108.95,105.82h1.45v1.38h-1.45v-1.38Z"/><g class="cls-11"><path class="cls-18" d="M113.99,113.1c.88,0,1.24-.63,1.24-1.96,0-1.22-.46-1.88-1.13-1.87-.74.01-1.02.69-1.02,1.88,0,1.37.44,1.95.92,1.95M111.97,115.04c.33.18.99.5,1.72.5,1.33,0,1.54-.92,1.54-1.83v-.56h-.02c-.23.45-.62.99-1.54.99-.82,0-2.04-.54-2.04-2.9,0-1.61.58-3.02,2.11-3.02.85,0,1.25.49,1.54,1h.04c0-.31.03-.6.05-.91h1.27c-.02.31-.05.61-.05.92v4.3c0,1.82-.55,3.13-2.7,3.13-.93,0-1.66-.24-2-.36l.08-1.25Z"/></g><polygon class="cls-18" points="121.45 109.59 121.42 109.59 120.4 114.14 118.87 114.14 117.29 108.3 118.74 108.3 119.68 112.84 119.7 112.84 120.69 108.3 122.29 108.3 123.25 112.84 123.27 112.84 124.21 108.3 125.57 108.3 124.02 114.14 122.49 114.14 121.45 109.59"/><g class="cls-17"><path class="cls-18" d="M129.31,111.28h-.12c-1.2,0-1.91.25-1.91,1.1,0,.53.35.9.89.9.84,0,1.14-.62,1.14-1.67v-.33ZM126.54,108.64c.4-.18.95-.43,1.85-.43,1.81,0,2.23.88,2.23,2.34v2.55c0,.42.05.8.08,1.03h-1.27c-.07-.23-.08-.51-.08-.79h-.02c-.35.48-.79.88-1.63.88-.91,0-1.74-.62-1.74-1.71,0-1.59,1.29-1.98,3.07-1.98h.28v-.22c0-.58-.28-1.11-1.09-1.11-.7,0-1.33.34-1.6.57l-.08-1.13Z"/><path class="cls-18" d="M131.97,109.26c0-.36-.01-.7-.04-.96h1.27c.01.35.05.71.05,1.06h.02c.17-.45.61-1.15,1.48-1.15.09,0,.16.02.24.03v1.31c-.12-.03-.25-.06-.4-.06-.58,0-1.21.35-1.21,1.44v3.19h-1.4v-4.87Z"/><path class="cls-18" d="M139.02,110.72c0-1.03-.34-1.55-.97-1.55-.74,0-1.04.78-1.04,1.55h2.02ZM140.08,113.85c-.29.12-.91.37-1.74.37-1.88,0-2.7-1.35-2.7-2.92,0-1.74.92-3.09,2.4-3.09,1.26,0,2.33.74,2.33,3.12v.27h-3.38c0,1,.4,1.6,1.48,1.6.86,0,1.27-.26,1.53-.45l.07,1.11Z"/><path class="cls-18" d="M141.46,109.26c0-.36-.01-.7-.04-.96h1.31c.01.29.04.6.04.89h.03-.01c.2-.35.6-.99,1.55-.99,1.32,0,1.72.99,1.72,2.16v3.76h-1.41v-3.5c0-.9-.23-1.27-.8-1.27-.74,0-1,.62-1,1.37v3.4h-1.4v-4.87Z"/><path class="cls-18" d="M150.13,112.78c.23.09.81.38,1.46.38.51,0,.91-.13.91-.58,0-.23-.11-.44-.62-.74l-.58-.34c-.59-.35-1.24-.72-1.24-1.64,0-.8.78-1.65,2.02-1.65.75,0,1.33.19,1.46.24l-.08,1.09c-.35-.14-.72-.26-1.23-.26-.57,0-.8.21-.8.57,0,.32.25.49.66.75l.69.44c.72.46,1.09.79,1.09,1.47,0,1.08-.91,1.72-2.18,1.72-.73,0-1.33-.17-1.62-.28l.07-1.17Z"/><path class="cls-18" d="M158.11,110.72c0-1.03-.34-1.55-.97-1.55-.74,0-1.04.78-1.04,1.55h2.02ZM159.18,113.85c-.29.12-.91.37-1.74.37-1.88,0-2.7-1.35-2.7-2.92,0-1.74.92-3.09,2.4-3.09,1.26,0,2.33.74,2.33,3.12v.27h-3.38c0,1,.4,1.6,1.49,1.6.86,0,1.27-.26,1.53-.45l.07,1.11Z"/></g><path class="cls-18" d="M160.69,108.3h1.4v5.83h-1.4v-5.83ZM160.67,105.82h1.45v1.38h-1.45v-1.38Z"/><g class="cls-14"><path class="cls-18" d="M164.03,107.1l1.4-.43v1.63h1.17v1.03h-1.17v3.02c0,.62.23.8.63.8.25,0,.43-.07.53-.13v1c-.22.1-.52.19-.94.19-1.04,0-1.63-.48-1.63-1.7v-3.19h-.93v-1.03h.93v-1.2Z"/></g><polygon class="cls-18" points="171.55 107.89 170.49 108.88 169.82 107.91 171.75 106.23 172.95 106.23 172.95 114.14 171.55 114.14 171.55 107.89"/><g class="cls-13"><path class="cls-18" d="M177.61,109.55c.36-.31.85-.68.85-1.37,0-.65-.27-1.03-.93-1.03-.55,0-.97.41-.97,1.09s.54,1.01,1.05,1.31M177.5,113.22c.71,0,1.09-.5,1.09-1.22,0-.61-.25-.93-.87-1.29l-.29-.18-.27.19c-.5.35-.74.72-.74,1.33,0,.68.39,1.18,1.09,1.18M176.1,110.24l.4-.19c-.78-.38-1.26-.92-1.26-1.83,0-1.35.95-2.1,2.29-2.1,1.16,0,2.24.67,2.24,1.93,0,.87-.52,1.53-1.29,1.92l.29.16c.68.36,1.22.97,1.22,1.89,0,1.52-1.1,2.24-2.52,2.24-1.53,0-2.47-.95-2.47-2.2,0-.87.47-1.52,1.09-1.81"/></g><polygon class="cls-18" points="184.28 107.38 181.15 107.38 181.15 106.23 185.64 106.23 185.64 107.5 183.27 114.14 181.71 114.14 184.28 107.38"/><g class="cls-16"><path class="cls-18" d="M189.31,113.18c.71,0,1.02-.57,1.02-1.5,0-.86-.29-1.48-1.02-1.48-.67,0-1.02.59-1.02,1.48s.32,1.5,1.02,1.5M191.29,107.57c-.27-.11-.68-.34-1.3-.34-1.53,0-1.79,1.68-1.83,2.64l.02.02c.27-.44.68-.79,1.45-.79,1.11,0,2.11.85,2.11,2.57,0,1.56-.83,2.58-2.32,2.58-2.02,0-2.57-1.65-2.57-3.69,0-2.33.65-4.44,3.07-4.44.73,0,1.19.17,1.46.27l-.08,1.18Z"/><path class="cls-1" d="M76.66,77.48s0,0,0,0c0,.01,0,.03,0,.04,0-.02,0-.03,0-.05M190.16,66.79l-.18-.12c-.32-.21-3.27-2.05-5.89-2.05-.61-.01-1.24.04-1.86.16-3.92.8-6.84,3.84-8.74,9.02v-6.5c0-.5-.2-.94-.52-1.28,1.4-.72,2.6-1.78,3.51-3.12,1.07-1.58,1.62-3.4,1.62-5.27,0-.61-.06-1.22-.18-1.82-.48-2.48-1.9-4.62-4-6.04-2.09-1.41-4.61-1.93-7.09-1.44-2.48.48-4.63,1.9-6.04,4-1.41,2.09-1.92,4.61-1.44,7.09.48,2.48,1.9,4.63,3.99,6.04.28.19.58.36.88.52-.34.34-.57.8-.57,1.32,0,0,0,.33-.02.86h-.14c0-.67-.36-1.3-.95-1.64l-.97-.56c-1.44-.81-2.89-1.22-4.31-1.23-.6,0-1.12.05-1.6.17-3.57.74-6.21,3.67-7.3,7.86v-4.6c0-.68-.36-1.3-.95-1.64l-.97-.56c-1.44-.81-2.89-1.22-4.31-1.23-.6,0-1.12.05-1.61.17-2.68.56-4.84,2.35-6.21,4.98v-2.58c0-.61-.29-1.14-.74-1.49.57-.82.91-1.82.91-2.89,0-2.81-2.28-5.09-5.09-5.09-2.23,0-4.12,1.44-4.81,3.44-.69-2-2.58-3.44-4.81-3.44-2.81,0-5.09,2.29-5.09,5.09,0,1.07.33,2.07.91,2.89-.09.07-.17.14-.25.23-.35-.38-.84-.62-1.39-.62h-6.05c-.55,0-1.03.24-1.37.61-.34-.37-.83-.61-1.37-.61h-6.05c-.5,0-.98.2-1.34.55-.19.19-.33.42-.43.67-.08-.07-.17-.14-.27-.2l-.95-.56c-1.26-.74-2.65-1.13-4.15-1.15,0,0,0,0,0,0-2.53-.03-4.94,1.02-6.95,3.05-1.59,1.6-2.86,3.77-3.74,6.28v-5.89c0-.68-.36-1.3-.95-1.64l-.97-.56c-1.44-.81-2.89-1.22-4.31-1.23h0c-.6,0-1.11.05-1.6.17-3.01.63-5.36,2.81-6.67,5.98-.37-5.6-3.21-9.3-7.42-9.53-.02,0-.04,0-.06,0l-2.52-.06h-6.38c-1.04,0-1.89.84-1.89,1.89v36.08c0,1.03.83,1.88,1.86,1.89l5.61.08c1.52.02,2.86-.07,4.1-.28,2.23-.38,4.03-1.71,5.29-3.81v.68c0,.64.32,1.23.85,1.58l.79.51c1.48.97,3.09,1.58,4.8,1.82.65.1,1.35.13,2.05.08,3.99-.26,6.96-3.11,8.24-7.62,2.15,4.8,5.69,7.74,9.88,7.69,1.5-.03,2.9-.41,4.16-1.15,0,0,.95-.55.95-.55.11-.07.21-.14.31-.23.29.67.96,1.14,1.73,1.14h6.05c.54,0,1.03-.23,1.37-.6.34.37.83.6,1.37.6h6.05c1.05,0,1.89-.84,1.89-1.89v-4.08c1.5,4.17,4.68,6.74,8.74,6.74,3.46,0,6.19-1.67,7.86-4.61v.58c0,.64.32,1.23.86,1.59l.79.51c1.48.96,3.09,1.57,4.8,1.81.65.1,1.35.13,2.05.08,2.79-.18,5.08-1.63,6.64-4.03v.04c0,.64.32,1.23.86,1.58l.79.51c1.48.97,3.1,1.58,4.8,1.82.65.1,1.35.13,2.05.08,3.42-.22,6.09-2.35,7.59-5.8v3.25c0,1.04.85,1.89,1.89,1.89h6.06c1.05,0,1.89-.85,1.89-1.89v-4.36c1.79,4.29,4.8,6.91,8.56,7.05,2.4.08,4.7-.72,7.03-2.46-.03.02-.07.03-.1.05.28-.19.67-.48,1.3-.95.47-.36.76-.92.76-1.51v-28.69c0-.65-.33-1.25-.87-1.59"/><path class="cls-18" d="M58.35,76.49c-.33.51-.7.75-1.14.76,0,0-.27-.03-.29-.03v-7.55c.15-.02.3-.03.3-.03,1.02-.11,1.65.86,1.89,2.89l.04.74v.05c0,1.19-.31,2.4-.8,3.17M58.84,88.61c-.02,2.3-.8,3.84-2,3.92,0,0-.57-.04-.58-.04v-8.3h.3l.52.03c.84.07,1.76,1.87,1.76,4.35v.06ZM62.58,80.07s-.06-.05-.12-.12c.1-.12.21-.24.21-.24.56-.65,1.05-1.55,1.44-2.68.51-1.47.78-3.17.78-4.91v-.11c-.04-5.14-2.27-8.58-5.68-8.77,0,0-2.52-.06-2.52-.06h-6.33v36.08l5.61.08c1.41.02,2.64-.06,3.76-.25,3.16-.54,5.23-3.76,5.69-8.83.06-.58.08-1.17.08-1.75,0-.3,0-.59-.02-.89-.15-3.26-1.15-5.87-2.89-7.54"/><path class="cls-18" d="M76.8,79.22s-.84-.64-.84-.64c0,0-1.16-.87-1.16-.87,0,0-.31-.28-.31-.28-.76-.75-1.18-1.68-1.17-2.56,0-.67.24-1.32.63-1.69.24-.23.51-.34.81-.33.78.03,1.5.34,2.88,1.85.34.4.8.84,1.27.66.46-.18.47-.8.46-.93v-6.27l-.97-.56c-1.15-.64-2.29-.97-3.39-.98-.44,0-.82.04-1.16.12-3.88.81-6.39,4.95-6.39,10.55,0,4.17,1.2,6.96,4.16,9.63,0,0,1.02.85,1.02.85,1.51,1.16,2.13,2.18,2.15,3.5,0,.76-.21,1.39-.61,1.79-.32.31-.75.46-1.27.44-1.08-.04-2.19-.57-4.08-2.98l-.14-.18c-.12-.17-.5-.71-.99-.55-.34.11-.46.5-.46.8v7.25l.79.51c1.24.81,2.6,1.32,4.03,1.53.53.08,1.09.11,1.66.06,4.3-.28,7.12-4.56,7.18-10.91.05-4.46-1.2-7.47-4.07-9.79"/><path class="cls-18" d="M143.9,79.22s-.85-.64-.85-.64c0,0-1.16-.87-1.16-.87,0,0-.33-.3-.33-.3-.74-.73-1.16-1.66-1.15-2.55,0-.68.24-1.31.63-1.69.24-.23.51-.34.81-.33.77.03,1.5.34,2.88,1.85.34.4.8.84,1.28.66.46-.18.46-.8.46-.93v-6.27l-.97-.56c-1.15-.64-2.29-.97-3.39-.98-.44,0-.82.04-1.17.12-3.88.81-6.39,4.95-6.39,10.55,0,4.17,1.2,6.96,4.16,9.63,0,0,1.02.85,1.02.85,1.51,1.16,2.13,2.18,2.15,3.5,0,.76-.21,1.39-.61,1.79-.32.31-.74.46-1.27.44-1.08-.04-2.19-.57-4.09-2.98l-.14-.19c-.12-.16-.5-.7-.99-.55-.34.11-.47.5-.47.8v7.25l.79.51c1.24.81,2.6,1.32,4.03,1.53.53.08,1.09.11,1.66.06,4.3-.28,7.12-4.56,7.18-10.91.05-4.46-1.21-7.48-4.07-9.79"/><path class="cls-18" d="M159.04,79.22l-.84-.64s-1.16-.87-1.16-.87l-.32-.29c-.75-.74-1.17-1.66-1.17-2.54v-.02c0-.68.24-1.32.63-1.69.24-.23.51-.34.81-.33.77.03,1.49.34,2.88,1.85.34.4.8.84,1.27.66.46-.18.46-.8.46-.93v-6.27l-.97-.56c-1.15-.65-2.29-.97-3.39-.98-.44,0-.82.04-1.17.12-3.88.81-6.39,4.95-6.39,10.55,0,4.17,1.2,6.96,4.16,9.63,0,0,1.02.85,1.02.85,1.51,1.16,2.13,2.18,2.16,3.5,0,.76-.21,1.39-.61,1.78-.32.31-.75.46-1.27.44-1.08-.04-2.19-.57-4.08-2.98l-.14-.18c-.12-.17-.5-.71-.99-.55-.34.11-.46.5-.46.8v7.25l.79.51c1.24.81,2.6,1.32,4.03,1.53.53.08,1.09.11,1.66.06,4.3-.28,7.12-4.56,7.18-10.91.05-4.46-1.21-7.47-4.07-9.79"/></g><rect class="cls-18" x="165.54" y="67.3" width="6.06" height="31.96"/><g class="cls-15"><path class="cls-18" d="M107.87,79.26h-2.72c0-.74,0-11.96,0-11.96h-6.05v31.89h6.05s0-12.67,0-13.41h2.72c0,.74.01,13.41.01,13.41h6.05v-31.89h-6.05s-.01,11.22-.01,11.96"/><path class="cls-18" d="M126.34,88.3c0,4-1.01,4.47-1.78,4.47-.88,0-1.78-.53-1.78-4.47v-21h-6.07v19.32l.07,3.49c.24,5.99,3.29,9.86,7.78,9.86s7.53-3.69,7.78-9.86l.07-3.49v-19.32h-6.07v21Z"/><path class="cls-18" d="M129.38,59.71c-1.77,0-3.2,1.44-3.2,3.2s1.44,3.2,3.2,3.2,3.2-1.44,3.2-3.2-1.44-3.2-3.2-3.2"/><path class="cls-18" d="M119.76,66.12c1.77,0,3.2-1.44,3.2-3.2s-1.44-3.2-3.2-3.2-3.2,1.44-3.2,3.2,1.44,3.2,3.2,3.2"/><path class="cls-18" d="M91.92,66.61c-2.01-.03-3.94.84-5.58,2.49-3,3.02-4.71,8.33-4.6,14.2.19,9.74,4.47,16.75,10.18,16.68,1.16-.02,2.25-.32,3.23-.9l.95-.55v-8.11c0-.36-.22-.66-.53-.73-.26-.06-.63.05-.87.54-1.11,2.4-2.06,3.44-3.16,3.48-.52.02-.96-.16-1.37-.55-.89-.85-1.95-3.1-1.97-8.96v-.42s.01-.51.01-.51v-.91c0-5.86,1.07-8.11,1.96-8.96.41-.39.85-.57,1.37-.55,1.1.05,2.05,1.09,3.15,3.48.32.67.76.62.89.59.31-.07.51-.37.51-.77v-8.11l-.95-.56c-.98-.57-2.06-.88-3.23-.9"/><path class="cls-18" d="M183.58,72.81c2.05,0,2.91,1.14,4.17,3.85v.02c.34.61.77.55.9.52.3-.08.5-.37.5-.72v-8.1l-.18-.12c-.11-.07-2.78-1.75-4.88-1.75-.51-.01-1.02.03-1.5.13-3.45.71-6.03,3.69-7.67,8.87-.87,2.74-1.32,5.76-1.32,9-.04,9.11,3.4,15.36,8.54,15.55,1.95.07,3.86-.61,5.83-2.08,0,0,1.19-.89,1.19-.89v-14.4h-6.01v4.06c0,1.64.01,3.39.01,4.77,0,.99,0,1.79,0,2.22-.12.03-.23.06-.23.06,0,0-.24.04-.35.07-1.16-.02-2.38-2.72-2.52-8.73-.01-.44-.02-.86-.02-1.27,0-7.22,1.61-9.69,2.34-10.43.39-.4.8-.61,1.22-.61"/><path class="cls-18" d="M176.44,56.09c.84,4.31-1.98,8.48-6.28,9.32-4.31.84-8.48-1.98-9.32-6.28-.84-4.31,1.98-8.48,6.29-9.32,4.31-.84,8.48,1.98,9.32,6.28"/></g><path class="cls-5" d="M168.63,50.04c-.43,0-.87.04-1.31.12-4.11.72-6.86,4.65-6.14,8.77.73,4.12,4.65,6.87,8.77,6.14,4.12-.72,6.86-4.65,6.14-8.77-.65-3.67-3.84-6.26-7.44-6.26h-.01"/><g class="cls-7"><rect class="cls-19" x="158.26" y="47.72" width="20.76" height="20.4" transform="translate(-9.64 61.17) rotate(-20)"/></g><g class="cls-6"><rect class="cls-3" x="161.38" y="48.9" width="11.76" height="9.27" transform="translate(-8.34 55.84) rotate(-18.5)"/></g><g class="cls-8"><path d="M175.26,55.54s.59,1.48.4,2.68c-.36.27-2.16.9-2.56.97,0,0,.18,2.56-.02,3.36-.68.68-2.88.99-2.88.99-.13-1.37-.52-3.56-.52-3.56-1.62.28-4.3.65-4.3.65-.63-1.74-.7-3.64-.7-3.64,0,0,2.27-.51,4.32-.81,0,0-.19-1.46-.76-3.84,1.53-.36,3.14-.13,3.14-.13.45.85,1.05,3.02,1.13,3.43,2.06-.22,2.74-.09,2.74-.09"/><path class="cls-18" d="M174.96,55.3s.59,1.48.4,2.68c-.36.27-2.16.89-2.56.96,0,0,.17,2.56-.02,3.36-.69.68-2.88.99-2.88.99-.13-1.37-.52-3.56-.52-3.56-1.62.29-4.3.65-4.3.65-.64-1.74-.7-3.64-.7-3.64,0,0,2.27-.51,4.31-.81,0,0-.19-1.46-.76-3.84,1.53-.36,3.15-.13,3.15-.13.44.85,1.05,3.02,1.12,3.43,2.06-.22,2.74-.09,2.74-.09"/><path class="cls-4" d="M174.96,55.3s-.48-.09-1.83.01c-.23,2.27-1.6,4.24-3.57,5.43.12.75.27,1.78.35,2.55,0,0,2.2-.31,2.88-.99.19-.79.02-3.36.02-3.36.4-.07,2.19-.7,2.56-.96.19-1.19-.4-2.68-.4-2.68"/><path class="cls-2" d="M190.16,66.79l-.18-.12c-.32-.21-3.27-2.05-5.89-2.05-.61-.01-1.24.04-1.86.16-3.92.8-6.84,3.84-8.74,9.02v-6.5c0-.5-.2-.95-.52-1.28,1.4-.72,2.6-1.78,3.5-3.12,1.07-1.58,1.62-3.4,1.62-5.27,0-.61-.06-1.22-.18-1.82-.48-2.48-1.9-4.62-4-6.04-2.09-1.41-4.61-1.93-7.09-1.44-2.48.48-4.63,1.9-6.04,4-1.41,2.09-1.92,4.61-1.44,7.09.48,2.48,1.9,4.63,3.99,6.04.28.19.57.36.87.52-.34.34-.56.81-.56,1.33,0,0,0,.33-.02.86h-.14c0-.67-.36-1.3-.95-1.64l-.97-.56c-1.44-.81-2.89-1.22-4.31-1.23-.6,0-1.12.05-1.6.17-3.57.74-6.21,3.67-7.3,7.86v-4.6c0-.68-.36-1.3-.95-1.64l-.97-.56c-1.44-.81-2.89-1.22-4.31-1.23-.6,0-1.12.05-1.61.17-2.68.56-4.84,2.35-6.21,4.98v-2.58c0-.61-.29-1.14-.74-1.49.57-.82.91-1.82.91-2.89,0-2.81-2.28-5.09-5.09-5.09-2.23,0-4.12,1.44-4.81,3.44-.69-2-2.58-3.44-4.81-3.44-2.81,0-5.09,2.29-5.09,5.09,0,1.07.33,2.07.91,2.89-.09.07-.17.14-.25.23-.35-.38-.84-.62-1.39-.62h-6.05c-.55,0-1.03.24-1.37.61-.34-.37-.83-.61-1.37-.61h-6.05c-.5,0-.98.2-1.34.55-.19.19-.33.42-.43.67-.08-.07-.17-.14-.27-.2l-.95-.56c-1.26-.74-2.65-1.13-4.15-1.15,0,0,0,0,0,0-2.53-.03-4.94,1.02-6.95,3.05-1.59,1.61-2.86,3.77-3.74,6.28v-5.89c0-.68-.36-1.3-.95-1.64l-.97-.56c-1.44-.81-2.89-1.22-4.31-1.23h0c-.6,0-1.11.05-1.6.17-3.01.63-5.36,2.81-6.67,5.98-.37-5.6-3.21-9.29-7.42-9.52-.02,0-.04,0-.06,0l-2.52-.06h-6.38c-1.04,0-1.89.84-1.89,1.89v36.08c0,1.03.83,1.87,1.86,1.89l5.61.08c1.52.02,2.86-.07,4.1-.28,2.23-.38,4.03-1.71,5.29-3.81v.68c0,.64.32,1.23.86,1.58l.79.51c1.48.97,3.09,1.58,4.8,1.82.65.1,1.35.13,2.05.08,3.99-.26,6.96-3.11,8.24-7.62,2.15,4.8,5.69,7.74,9.88,7.69,1.5-.03,2.9-.41,4.16-1.15,0,0,.95-.55.95-.55.11-.07.21-.14.31-.23.29.67.96,1.14,1.73,1.14h6.05c.54,0,1.03-.23,1.37-.6.34.37.83.6,1.37.6h6.05c1.05,0,1.89-.84,1.89-1.89v-4.08c1.5,4.17,4.68,6.74,8.74,6.74,3.46,0,6.19-1.67,7.86-4.61v.58c0,.64.32,1.23.86,1.59l.79.51c1.48.96,3.09,1.57,4.8,1.81.65.1,1.35.13,2.05.08,2.79-.18,5.08-1.63,6.64-4.03v.04c0,.64.32,1.23.86,1.58l.79.51c1.48.97,3.1,1.58,4.8,1.82.65.1,1.35.13,2.05.08,3.42-.22,6.09-2.35,7.59-5.8v3.25c0,1.04.85,1.89,1.89,1.89h6.06c1.05,0,1.89-.85,1.89-1.89v-4.36c1.79,4.29,4.8,6.91,8.56,7.05,2.4.08,4.7-.72,7.03-2.46-.03.02-.07.03-.1.05.28-.19.67-.48,1.3-.95.47-.36.76-.92.76-1.51v-28.69c0-.65-.33-1.25-.87-1.59Z"/></g></svg>